<svg xmlns="http://www.w3.org/2000/svg" xmlns:xlink="http://www.w3.org/1999/xlink" viewBox="0 0 1920 1080"><defs><style>.cls-1,.cls-10,.cls-2,.cls-20,.cls-22,.cls-23{fill:none;}.cls-2{clip-rule:evenodd;}.cls-3{fill:#ccc;}.cls-4{fill:#999;}.cls-12,.cls-17,.cls-5{fill:#fff;}.cls-6{font-size:14.04px;font-family:SFUIText-Semibold, SFUIText Semibold;font-weight:600;}.cls-7{letter-spacing:0em;}.cls-8{clip-path:url(#clip-path);}.cls-9{clip-path:url(#clip-path-2);}.cls-10{stroke:#fff;stroke-width:3.82px;opacity:0.35;}.cls-10,.cls-20,.cls-22,.cls-23,.cls-24,.cls-25{stroke-miterlimit:10;}.cls-11{clip-path:url(#clip-path-3);}.cls-12{opacity:0.4;}.cls-13{clip-path:url(#clip-path-5);}.cls-14{clip-path:url(#clip-path-6);}.cls-15{clip-path:url(#clip-path-7);}.cls-16{clip-path:url(#clip-path-9);}.cls-17{fill-rule:evenodd;opacity:0.2;}.cls-18{clip-path:url(#clip-path-11);}.cls-19{clip-path:url(#clip-path-12);}.cls-20,.cls-22,.cls-23,.cls-24,.cls-25{stroke:#000;}.cls-20{stroke-width:0.58px;}.cls-21{fill:#262626;}.cls-22{stroke-width:5px;}.cls-23,.cls-24,.cls-25{stroke-width:2px;}.cls-24{fill:#de242a;}.cls-26{clip-path:url(#clip-path-13);}.cls-27{clip-path:url(#clip-path-14);}.cls-28{clip-path:url(#clip-path-15);}.cls-29{clip-path:url(#clip-path-17);}.cls-30{clip-path:url(#clip-path-18);}.cls-31{clip-path:url(#clip-path-19);}.cls-32{clip-path:url(#clip-path-21);}.cls-33{clip-path:url(#clip-path-23);}.cls-34{clip-path:url(#clip-path-24);}.cls-35{clip-path:url(#clip-path-25);}.cls-36{clip-path:url(#clip-path-26);}.cls-37{clip-path:url(#clip-path-27);}.cls-38{clip-path:url(#clip-path-29);}.cls-39{clip-path:url(#clip-path-30);}.cls-40{clip-path:url(#clip-path-31);}.cls-41{clip-path:url(#clip-path-33);}.cls-42{clip-path:url(#clip-path-35);}.cls-43{clip-path:url(#clip-path-36);}</style><clipPath id="clip-path"><rect class="cls-1" x="768.6" y="137.92" width="25.72" height="13.25" rx="3.12"/></clipPath><clipPath id="clip-path-2"><rect class="cls-1" x="375.74" y="117.66" width="438.46" height="53.78"/></clipPath><clipPath id="clip-path-3"><path d="M795.5,142.21v4.68a2.54,2.54,0,0,0,0-4.68"/></clipPath><clipPath id="clip-path-5"><rect x="770.94" y="140.26" width="21.05" height="8.58" rx="1.56"/></clipPath><clipPath id="clip-path-6"><rect x="375.74" y="117.66" width="438.46" height="53.78"/></clipPath><clipPath id="clip-path-7"><path d="M756.38,148.28a.36.36,0,0,0,.11-.27.36.36,0,0,0-.12-.27,4,4,0,0,0-5.16,0,.36.36,0,0,0-.12.27.35.35,0,0,0,.1.27l2.34,2.35a.36.36,0,0,0,.52,0ZM753.79,145a5.75,5.75,0,0,1,3.85,1.48.36.36,0,0,0,.51,0l1.35-1.37a.39.39,0,0,0,.11-.27.37.37,0,0,0-.12-.26,8.37,8.37,0,0,0-11.4,0,.37.37,0,0,0-.12.26.39.39,0,0,0,.11.27l1.35,1.37a.36.36,0,0,0,.51,0A5.77,5.77,0,0,1,753.79,145Zm0-4.44a10.13,10.13,0,0,1,7,2.78.36.36,0,0,0,.51,0l1.35-1.37a.36.36,0,0,0,.11-.26.36.36,0,0,0-.12-.27,12.75,12.75,0,0,0-17.63,0,.39.39,0,0,0-.11.27.36.36,0,0,0,.11.26l1.35,1.37a.36.36,0,0,0,.51,0A10.13,10.13,0,0,1,753.79,140.58Z"/></clipPath><clipPath id="clip-path-9"><path d="M736.64,138.31h1.17a1.17,1.17,0,0,1,1.17,1.17v10.13a1.17,1.17,0,0,1-1.17,1.17h-1.17a1.17,1.17,0,0,1-1.17-1.17V139.48A1.18,1.18,0,0,1,736.64,138.31ZM731.19,141h1.17a1.17,1.17,0,0,1,1.17,1.17v7.4a1.17,1.17,0,0,1-1.17,1.17h-1.17a1.17,1.17,0,0,1-1.17-1.17v-7.4A1.17,1.17,0,0,1,731.19,141Zm-5.46,2.73h1.17a1.17,1.17,0,0,1,1.17,1.17v4.67a1.17,1.17,0,0,1-1.17,1.17h-1.17a1.17,1.17,0,0,1-1.17-1.17v-4.67A1.17,1.17,0,0,1,725.73,143.77Zm-5.46,2.34h1.17a1.17,1.17,0,0,1,1.17,1.17v2.33a1.17,1.17,0,0,1-1.17,1.17h-1.17a1.17,1.17,0,0,1-1.17-1.17v-2.33A1.17,1.17,0,0,1,720.27,146.11Z"/></clipPath><clipPath id="clip-path-11"><path class="cls-2" d="M643.92,732.51H776.44v29.33H643.92Zm-.35-.36H776.8v30H643.57Z"/></clipPath><clipPath id="clip-path-12"><rect class="cls-1" x="643.92" y="732.15" width="132.52" height="29.68"/></clipPath><clipPath id="clip-path-13"><rect class="cls-1" x="1505.6" y="141.92" width="25.72" height="13.25" rx="3.12"/></clipPath><clipPath id="clip-path-14"><rect class="cls-1" x="1112.74" y="121.66" width="438.46" height="53.78"/></clipPath><clipPath id="clip-path-15"><path d="M1532.5,146.21v4.68a2.54,2.54,0,0,0,0-4.68"/></clipPath><clipPath id="clip-path-17"><rect x="1507.94" y="144.26" width="21.05" height="8.58" rx="1.56"/></clipPath><clipPath id="clip-path-18"><rect x="1112.74" y="121.66" width="438.46" height="53.78"/></clipPath><clipPath id="clip-path-19"><path d="M1493.38,152.28a.36.36,0,0,0,.11-.27.36.36,0,0,0-.12-.27,4,4,0,0,0-5.16,0,.36.36,0,0,0-.12.27.35.35,0,0,0,.1.27l2.34,2.35a.36.36,0,0,0,.52,0Zm-2.59-3.26a5.75,5.75,0,0,1,3.85,1.48.36.36,0,0,0,.51,0l1.35-1.37a.39.39,0,0,0,.11-.27.37.37,0,0,0-.12-.26,8.37,8.37,0,0,0-11.4,0,.37.37,0,0,0-.12.26.39.39,0,0,0,.11.27l1.35,1.37a.36.36,0,0,0,.51,0A5.77,5.77,0,0,1,1490.79,149Zm0-4.44a10.13,10.13,0,0,1,7,2.78.36.36,0,0,0,.51,0l1.35-1.37a.36.36,0,0,0,.11-.26.36.36,0,0,0-.12-.27,12.75,12.75,0,0,0-17.63,0,.39.39,0,0,0-.11.27.36.36,0,0,0,.11.26l1.35,1.37a.36.36,0,0,0,.51,0A10.13,10.13,0,0,1,1490.79,144.58Z"/></clipPath><clipPath id="clip-path-21"><path d="M1473.64,142.31h1.17a1.17,1.17,0,0,1,1.17,1.17v10.13a1.17,1.17,0,0,1-1.17,1.17h-1.17a1.17,1.17,0,0,1-1.17-1.17V143.48A1.18,1.18,0,0,1,1473.64,142.31Zm-5.45,2.73h1.17a1.17,1.17,0,0,1,1.17,1.17v7.4a1.17,1.17,0,0,1-1.17,1.17h-1.17a1.17,1.17,0,0,1-1.17-1.17v-7.4A1.17,1.17,0,0,1,1468.19,145Zm-5.46,2.73h1.17a1.17,1.17,0,0,1,1.17,1.17v4.67a1.17,1.17,0,0,1-1.17,1.17h-1.17a1.17,1.17,0,0,1-1.17-1.17v-4.67A1.17,1.17,0,0,1,1462.73,147.77Zm-5.46,2.34h1.17a1.17,1.17,0,0,1,1.17,1.17v2.33a1.17,1.17,0,0,1-1.17,1.17h-1.17a1.17,1.17,0,0,1-1.17-1.17v-2.33A1.17,1.17,0,0,1,1457.27,150.11Z"/></clipPath><clipPath id="clip-path-23"><path class="cls-2" d="M1380.92,736.51h132.52v29.33H1380.92Zm-.35-.36H1513.8v30H1380.57Z"/></clipPath><clipPath id="clip-path-24"><rect class="cls-1" x="1380.92" y="736.15" width="132.52" height="29.68"/></clipPath><clipPath id="clip-path-25"><rect class="cls-1" x="1132.6" y="85.92" width="25.72" height="13.25" rx="3.12"/></clipPath><clipPath id="clip-path-26"><rect class="cls-1" x="739.74" y="65.66" width="438.46" height="53.78"/></clipPath><clipPath id="clip-path-27"><path d="M1159.5,90.21v4.68a2.54,2.54,0,0,0,0-4.68"/></clipPath><clipPath id="clip-path-29"><rect x="1134.94" y="88.26" width="21.05" height="8.58" rx="1.56"/></clipPath><clipPath id="clip-path-30"><rect x="739.74" y="65.66" width="438.46" height="53.78"/></clipPath><clipPath id="clip-path-31"><path d="M1120.38,96.28a.36.36,0,0,0,.11-.27.36.36,0,0,0-.12-.27,4,4,0,0,0-5.16,0,.36.36,0,0,0-.12.27.35.35,0,0,0,.1.27l2.34,2.35a.36.36,0,0,0,.52,0ZM1117.79,93a5.75,5.75,0,0,1,3.85,1.48.36.36,0,0,0,.51,0l1.35-1.37a.39.39,0,0,0,.11-.27.37.37,0,0,0-.12-.26,8.37,8.37,0,0,0-11.4,0,.37.37,0,0,0-.12.26.39.39,0,0,0,.11.27l1.35,1.37a.36.36,0,0,0,.51,0A5.77,5.77,0,0,1,1117.79,93Zm0-4.44a10.13,10.13,0,0,1,7,2.78.36.36,0,0,0,.51,0l1.35-1.37a.36.36,0,0,0,.11-.26.36.36,0,0,0-.12-.27,12.75,12.75,0,0,0-17.63,0,.39.39,0,0,0-.11.27.36.36,0,0,0,.11.26l1.35,1.37a.36.36,0,0,0,.51,0A10.13,10.13,0,0,1,1117.79,88.58Z"/></clipPath><clipPath id="clip-path-33"><path d="M1100.64,86.31h1.17a1.17,1.17,0,0,1,1.17,1.17V97.61a1.17,1.17,0,0,1-1.17,1.17h-1.17a1.17,1.17,0,0,1-1.17-1.17V87.48A1.18,1.18,0,0,1,1100.64,86.31ZM1095.19,89h1.17a1.17,1.17,0,0,1,1.17,1.17v7.4a1.17,1.17,0,0,1-1.17,1.17h-1.17a1.17,1.17,0,0,1-1.17-1.17v-7.4A1.17,1.17,0,0,1,1095.19,89Zm-5.46,2.73h1.17a1.17,1.17,0,0,1,1.17,1.17v4.67a1.17,1.17,0,0,1-1.17,1.17h-1.17a1.17,1.17,0,0,1-1.17-1.17V92.94A1.17,1.17,0,0,1,1089.73,91.77Zm-5.46,2.34h1.17a1.17,1.17,0,0,1,1.17,1.17v2.33a1.17,1.17,0,0,1-1.17,1.17h-1.17a1.17,1.17,0,0,1-1.17-1.17V95.28A1.17,1.17,0,0,1,1084.27,94.11Z"/></clipPath><clipPath id="clip-path-35"><path class="cls-2" d="M1007.92,680.51h132.52v29.33H1007.92Zm-.35-.36H1140.8v30H1007.57Z"/></clipPath><clipPath id="clip-path-36"><rect class="cls-1" x="1007.92" y="680.15" width="132.52" height="29.68"/></clipPath></defs><title>lespoteauxmamaq</title><g id="Calque_1" data-name="Calque 1"><rect class="cls-3" width="1920" height="1080"/><path class="cls-4" d="M-134-176,116.76,350.2c28.41,59.6,110.84,65.76,147.78,11L644-201Z"/><path class="cls-4" d="M1660,1278s418-721,155-817S285,1174,285,1174Z"/></g><g id="Calque_4" data-name="Calque 4"><rect x="355.88" y="98.18" width="480.34" height="988.17" rx="61.84"/><g id="News_-_Explore_Topic" data-name="News - Explore Topic"><rect id="Background" class="cls-5" x="375.81" y="117.72" width="438.88" height="950.49"/></g><g id="Status_Bar_-_Mockup_Default_-_Light" data-name="Status Bar - Mockup Default - Light"><text class="cls-6" transform="translate(404.02 150.88)">9:41 <tspan class="cls-7" x="27.5" y="0">A</tspan><tspan x="36.04" y="0">M</tspan></text></g><g class="cls-8"><g class="cls-9"><rect class="cls-10" x="768.6" y="137.92" width="25.72" height="13.25" rx="3.12"/></g></g><path d="M795.5,142.21v4.68a2.54,2.54,0,0,0,0-4.68"/><g class="cls-11"><g class="cls-9"><rect class="cls-12" x="789.65" y="136.36" width="13.25" height="16.37"/></g></g><rect x="770.94" y="140.26" width="21.05" height="8.58" rx="1.56"/><g class="cls-13"><rect x="375.74" y="117.66" width="438.46" height="53.78"/><g class="cls-14"><rect x="765.1" y="134.41" width="32.74" height="20.27"/></g></g><path d="M756.38,148.28a.36.36,0,0,0,.11-.27.36.36,0,0,0-.12-.27,4,4,0,0,0-5.16,0,.36.36,0,0,0-.12.27.35.35,0,0,0,.1.27l2.34,2.35a.36.36,0,0,0,.52,0ZM753.79,145a5.75,5.75,0,0,1,3.85,1.48.36.36,0,0,0,.51,0l1.35-1.37a.39.39,0,0,0,.11-.27.37.37,0,0,0-.12-.26,8.37,8.37,0,0,0-11.4,0,.37.37,0,0,0-.12.26.39.39,0,0,0,.11.27l1.35,1.37a.36.36,0,0,0,.51,0A5.77,5.77,0,0,1,753.79,145Zm0-4.44a10.13,10.13,0,0,1,7,2.78.36.36,0,0,0,.51,0l1.35-1.37a.36.36,0,0,0,.11-.26.36.36,0,0,0-.12-.27,12.75,12.75,0,0,0-17.63,0,.39.39,0,0,0-.11.27.36.36,0,0,0,.11.26l1.35,1.37a.36.36,0,0,0,.51,0A10.13,10.13,0,0,1,753.79,140.58Z"/><g class="cls-15"><rect x="375.74" y="117.66" width="438.46" height="53.78"/><g class="cls-14"><rect x="739.01" y="132.07" width="29.55" height="24.51"/></g></g><path d="M736.64,138.31h1.17a1.17,1.17,0,0,1,1.17,1.17v10.13a1.17,1.17,0,0,1-1.17,1.17h-1.17a1.17,1.17,0,0,1-1.17-1.17V139.48A1.18,1.18,0,0,1,736.64,138.31ZM731.19,141h1.17a1.17,1.17,0,0,1,1.17,1.17v7.4a1.17,1.17,0,0,1-1.17,1.17h-1.17a1.17,1.17,0,0,1-1.17-1.17v-7.4A1.17,1.17,0,0,1,731.19,141Zm-5.46,2.73h1.17a1.17,1.17,0,0,1,1.17,1.17v4.67a1.17,1.17,0,0,1-1.17,1.17h-1.17a1.17,1.17,0,0,1-1.17-1.17v-4.67A1.17,1.17,0,0,1,725.73,143.77Zm-5.46,2.34h1.17a1.17,1.17,0,0,1,1.17,1.17v2.33a1.17,1.17,0,0,1-1.17,1.17h-1.17a1.17,1.17,0,0,1-1.17-1.17v-2.33A1.17,1.17,0,0,1,720.27,146.11Z"/><g class="cls-16"><rect x="375.74" y="117.66" width="438.46" height="53.78"/><g class="cls-14"><rect x="713.26" y="132.47" width="31.57" height="24.16"/></g></g><path class="cls-17" d="M519.62,1053.49H670.41a2.93,2.93,0,0,1,0,5.85H519.62a2.93,2.93,0,0,1,0-5.85Z"/><g class="cls-18"><g class="cls-19"><rect class="cls-5" x="370.41" y="732.51" width="132.52" height="29.33"/></g></g><path class="cls-20" d="M768.33,118H723.27a6.38,6.38,0,0,0-6.1,6.38h-.06v3.74a24.37,24.37,0,0,1-24.38,24.38H497.59a24.38,24.38,0,0,1-24.39-24.38v-4a6.37,6.37,0,0,0-6.09-6.15H422.36a46.65,46.65,0,0,0-46.65,46.64v856.24a46.65,46.65,0,0,0,46.65,46.64h346A46.65,46.65,0,0,0,815,1020.88V164.64A46.65,46.65,0,0,0,768.33,118Z"/><path class="cls-21" d="M841.87,321.17V164.44A72.44,72.44,0,0,0,769.43,92H421.26a72.44,72.44,0,0,0-72.44,72.44V226h-2.26v38.32h2.26v32.38a5.82,5.82,0,0,0-2.49,4.78V366.2a5.83,5.83,0,0,0,2.49,4.78v18a5.82,5.82,0,0,0-2.49,4.78V458.5a5.82,5.82,0,0,0,2.49,4.78v556.28A72.44,72.44,0,0,0,421.26,1092H769.43a72.44,72.44,0,0,0,72.44-72.44V438.1a3.86,3.86,0,0,0,3.12-3.79V325A3.86,3.86,0,0,0,841.87,321.17ZM815,1020.88a46.65,46.65,0,0,1-46.65,46.64h-346a46.65,46.65,0,0,1-46.65-46.64V164.64A46.65,46.65,0,0,1,422.36,118h44.75a6.37,6.37,0,0,1,6.09,6.15v4a24.38,24.38,0,0,0,24.39,24.38H692.73a24.37,24.37,0,0,0,24.38-24.38v-3.74h.06a6.38,6.38,0,0,1,6.1-6.38h45.06A46.65,46.65,0,0,1,815,164.64Z"/><path d="M771,97.38H420.56a65,65,0,0,0-65,65v859.28a65,65,0,0,0,65,65H771a65,65,0,0,0,65-65V162.4A65,65,0,0,0,771,97.38Zm44,923.5a46.65,46.65,0,0,1-46.65,46.64h-346a46.65,46.65,0,0,1-46.65-46.64V164.64A46.65,46.65,0,0,1,422.36,118h44.75a6.37,6.37,0,0,1,6.09,6.15v4a24.38,24.38,0,0,0,24.39,24.38H692.73a24.37,24.37,0,0,0,24.38-24.38v-3.74h.06a6.38,6.38,0,0,1,6.1-6.38h45.06A46.65,46.65,0,0,1,815,164.64Z"/><path class="cls-5" d="M417.05,548.91a181.29,181.29,0,0,1,362.57,0v215s-1.2,18.69-18.56,25.19l-147,26.84c-18.5,2.9-30.31.25-30.31.25l-1-.38-147-26.83c-17.36-6.45-18.56-25.2-18.56-25.2v-216"/><path class="cls-1" d="M692.11,577.58A94.55,94.55,0,1,1,621.57,464,94.58,94.58,0,0,1,692.11,577.58Z"/><path d="M561,428.43l5.87-1.45,8,32.14,9.72-2.4,1.33,5.37-15.6,3.85Z"/><path d="M597.89,439h8.34v5.5h-8.34v11.3h10.49v5.49H591.83l-.06-38.64h16.54v5.49H597.83Z"/><path d="M632.88,426.48c5.74,1.45,7.83,5.62,6.31,11.62l-.31,1.2-5.56-1.39.38-1.58c.69-2.65-.13-4-2-4.42s-3.22.25-3.85,3c-2,7.7,9.21,12.06,6.5,22.79-1.52,6-5.37,8.65-11.18,7.2s-7.89-5.62-6.38-11.62l.57-2.27,5.56,1.39-.69,2.65c-.7,2.65.25,3.91,2.14,4.42s3.29-.19,4-2.84c2-7.71-9.22-12.06-6.5-22.8C623.34,427.68,627.13,425,632.88,426.48Z"/><rect class="cls-1" x="511.83" y="721.99" width="193.92" height="66.93"/><path d="M532,731.53v5.05c0,6.19-3,9.53-9,9.53h-2.85v14.53H514.1V722h8.84C529,722,532,725.34,532,731.53Zm-11.94-4v13.07h2.84c2,0,3-.88,3-3.66v-5.81c0-2.78-1.07-3.66-3-3.66l-2.84.06Z"/><path d="M539.61,731.27c0-6.18,3.29-9.72,9.22-9.72s9.22,3.54,9.22,9.72v20.08c0,6.19-3.28,9.73-9.22,9.73s-9.22-3.54-9.22-9.73Zm6.06,20.46c0,2.78,1.2,3.79,3.16,3.79s3.16-1.07,3.16-3.79V730.9c0-2.78-1.2-3.79-3.16-3.79s-3.16,1.07-3.16,3.79Z"/><path d="M565.25,722H584v5.5h-6.37v33.15h-6.07V727.49h-6.31V722Z"/><path d="M597.77,738.28h8.33v5.5h-8.33v11.3h10.48v5.49H591.71V721.93h16.54v5.49H597.77Z"/><path d="M636.67,760.64h-6.13l-1.07-7H622l-1.08,7h-5.55L621.57,722h8.91Zm-13.83-12.25h5.87l-2.91-19.51Z"/><path d="M650.3,722V751.8c0,2.77,1.2,3.72,3.16,3.72s3.16-1,3.16-3.72V722h5.75v29.43c0,6.19-3.1,9.72-9,9.72s-9-3.53-9-9.72V722Z"/><path d="M691.79,722l-6.38,18.76,6.82,19.89h-6.38l-5-15.28-5.06,15.28h-5.68L677,740.75,670.57,722h6.32l4.61,14.27L686.17,722Z"/><path class="cls-22" d="M437.7,553.84a160.32,160.32,0,0,1,320.64,0V744s-1.07,16.54-16.41,22.29L611.91,790c-16.35,2.59-26.83.25-26.83.25l-.89-.31L454.12,766.13c-15.35-5.68-16.42-22.29-16.42-22.29V552.77"/><path d="M601.81,648c-22.35-1-23.3-29.24-23.3-29.24l-2.08,1c-.76,2-2.21,7.71-3.16,22-1.33,19.7,19.38,20.71,19.38,20.71S603.45,657.84,601.81,648Z"/><rect x="598.08" y="651.59" width="9.22" height="48.94"/><rect x="615.32" y="651.59" width="9.22" height="48.94"/><path d="M641.27,623.8c-1.13-.63-2.27-1.26-3.4-1.83-.32-.12-.57-.25-.89-.38a9.31,9.31,0,0,1-1.2-.57,13.7,13.7,0,0,1-2.84-1.26,1.22,1.22,0,0,1-.51-.25c-.06,0-.06-.06-.12-.06V701h9.22v-77A.46.46,0,0,1,641.27,623.8Z"/><path d="M654,630.37c-1-.57-2.84-1.14-3.91-2.15v72h9.21V632.71C657.38,632.45,655.74,631.25,654,630.37Z"/><path d="M672.28,639.4a17.22,17.22,0,0,1-3.79-2.08v63.14h9.22V641.93C675.88,641,674.11,640.16,672.28,639.4Z"/><path d="M695.45,650.45c-.12-.06-.25-.19-.38-.25s-.06,0-.06-.07h-.13a2.63,2.63,0,0,1-.44-.19,14.9,14.9,0,0,1-2.33-1.07,1,1,0,0,1-.32-.19c-1-.44-2-.88-2.9-1.39h-.07a8.25,8.25,0,0,1-2.14-1l-.19-.19v54.56h9.22v-50A1,1,0,0,0,695.45,650.45Z"/><rect x="581.67" y="651.59" width="9.22" height="48.94"/><path d="M573.65,619.51a2,2,0,0,0-.51.25A17.84,17.84,0,0,1,570.3,621c-.38.19-.76.38-1.2.57s-.57.26-.88.38c-1.14.57-2.21,1.2-3.41,1.83-.13.07-.19.13-.32.13v77h9.22l-.06-81.46Z"/><path d="M552.12,630.37c1-.57,2.84-1.14,3.91-2.15v72h-9.22V632.71C548.77,632.45,550.41,631.25,552.12,630.37Z"/><path d="M533.87,639.4a19,19,0,0,0,3.79-2.08v63.14h-9.22V641.93C530.27,641,532,640.16,533.87,639.4Z"/><path d="M603,648.05c23.62-1,24.69-30.94,24.69-30.94l2.21,1.07c.76,2.15,2.34,8.15,3.35,23.24,1.38,20.84-20.53,21.91-20.53,21.91S601.24,658.47,603,648.05Z"/><path class="cls-23" d="M602.5,634.22C556.22,617.17,560.32,563,560.32,563l2.15-4.61-3.28-4.93s-.63-61.38,42.68-61.38,45,61.06,45,61.06l-3.6,5.56,1.2,4.3s4.11,54.17-42.18,71.22"/><path class="cls-23" d="M599.22,518.92s-26.27-4.61-39.09,21.66"/><path class="cls-23" d="M559.12,543.93s-19.7,11.8.32,24"/><path class="cls-23" d="M646.07,543.36s19,12.88-1.7,23.93"/><line class="cls-23" x1="602.19" y1="562.36" x2="602.19" y2="575.18"/><path class="cls-23" d="M624.6,559.08a4.29,4.29,0,1,1-4.29-4.29A4.24,4.24,0,0,1,624.6,559.08Z"/><path class="cls-23" d="M588.87,559.08a4.3,4.3,0,1,1-4.3-4.29A4.25,4.25,0,0,1,588.87,559.08Z"/><path class="cls-23" d="M612,559s7.89-9.09,17.49.26"/><path class="cls-23" d="M576.43,559s7.89-9.09,17.49.26"/><path class="cls-23" d="M592.34,552.77s-12.06,1-19-2.72"/><path class="cls-23" d="M593,575.43s9.1,16.49,18.25,0"/><path class="cls-23" d="M597.71,487.29l-.19,4.42S587,550.49,645.13,539.63C645.19,539.63,655,481.54,597.71,487.29Z"/><path class="cls-23" d="M643.55,537.74c-16.74-42.88-46-37.7-46-37.7"/><path class="cls-23" d="M644.05,539.51S611.79,511,598.72,512.67"/><path class="cls-23" d="M605.35,530.6s30,7.9,35.23,8.15"/><path class="cls-23" d="M560.58,535s17.23-40.85,35.74-37.44"/><path class="cls-23" d="M561,536.79s15-30.56,34.73-30.06"/><path class="cls-23" d="M607.3,592.48a6.53,6.53,0,0,1-8.39-.5"/><path class="cls-23" d="M528,643.5v.19l48.44-23.86a4.11,4.11,0,0,1,.44-1Z"/><path class="cls-24" d="M523.51,613.83l27.41-3.29c4.92.32,3.09-4.42,3.09-4.42l-6.57-49.88s1-4.93-4.73-3.92-28.54,3.6-28.54,3.6-4.61-.5-3.6,4.74,3.6,28.54,3.6,28.54l2.27,18.69"/><path class="cls-23" d="M486.7,699.2l31.82.31L523,665.23c7.83-12.32,1.26-17.56,1.26-17.56,7.7-9-1.64-12.63-1.64-12.63,1.32-3.28-5.94-7.7-5.94-7.7-3.09-7.39-7.45-5.94-7.45-5.94a98.9,98.9,0,0,1,10-6.06c5.37-2.78-.63-5.24-.63-5.24l-6.25,1-10.93,4.42.07.51-8.15,10.86c-6.88,11.17-1.07,13.64-1.07,13.64l6.5,19.51s.51,7.58.57,10.48-12.25,28.23-12.25,28.23"/><line class="cls-23" x1="497.18" y1="632.58" x2="508.74" y2="621.91"/><line class="cls-23" x1="516.69" y1="627.34" x2="505.07" y2="635.36"/><path class="cls-23" d="M522,635.17s-6.57,5.24-9.22,5.93"/><path class="cls-23" d="M523.76,647a9.52,9.52,0,0,1-6.06,1"/><path class="cls-23" d="M524.14,615.09s2.46,3.72-7.39,10.1"/><path class="cls-23" d="M610.4,550.11s15.15-7.32,23.05-2.84"/><line class="cls-23" x1="695.77" y1="650.64" x2="628.96" y2="617.62"/><path class="cls-25" d="M605.66,587.37s8-7.77,17.49-.89c0,0,5.43,4.3,9.47,2.15s-4.86,6.76-14.46,4C618.16,592.67,613.55,593.24,605.66,587.37Z"/><path class="cls-25" d="M600,587.5s-8-7.71-17.49-.89c0,0-5.43,4.29-9.47,2.15s4.86,6.75,14.46,4C587.6,592.8,592.21,593.43,600,587.5Z"/><circle class="cls-25" cx="584.57" cy="559.08" r="1.01"/><circle class="cls-25" cx="620.25" cy="559.08" r="1.01"/><path class="cls-22" d="M417.18,549.29a181.29,181.29,0,0,1,362.57,0v215s-1.2,18.69-18.56,25.19l-147,26.84c-18.51,2.9-30.31.25-30.31.25l-1-.38L435.8,789.3c-17.36-6.44-18.56-25.19-18.56-25.19V548"/><rect x="1092.88" y="102.18" width="480.34" height="988.17" rx="61.84"/><g id="News_-_Explore_Topic-2" data-name="News - Explore Topic"><rect id="Background-2" data-name="Background" class="cls-5" x="1112.81" y="121.72" width="438.88" height="950.49"/></g><g id="Status_Bar_-_Mockup_Default_-_Light-2" data-name="Status Bar - Mockup Default - Light"><text class="cls-6" transform="translate(1141.02 154.88)">9:41 <tspan class="cls-7" x="27.5" y="0">A</tspan><tspan x="36.04" y="0">M</tspan></text></g><g class="cls-26"><g class="cls-27"><rect class="cls-10" x="1505.6" y="141.92" width="25.72" height="13.25" rx="3.12"/></g></g><path d="M1532.5,146.21v4.68a2.54,2.54,0,0,0,0-4.68"/><g class="cls-28"><g class="cls-27"><rect class="cls-12" x="1526.65" y="140.36" width="13.25" height="16.37"/></g></g><rect x="1507.94" y="144.26" width="21.05" height="8.58" rx="1.56"/><g class="cls-29"><rect x="1112.74" y="121.66" width="438.46" height="53.78"/><g class="cls-30"><rect x="1502.1" y="138.41" width="32.74" height="20.27"/></g></g><path d="M1493.38,152.28a.36.36,0,0,0,.11-.27.36.36,0,0,0-.12-.27,4,4,0,0,0-5.16,0,.36.36,0,0,0-.12.27.35.35,0,0,0,.1.27l2.34,2.35a.36.36,0,0,0,.52,0Zm-2.59-3.26a5.75,5.75,0,0,1,3.85,1.48.36.36,0,0,0,.51,0l1.35-1.37a.39.39,0,0,0,.11-.27.37.37,0,0,0-.12-.26,8.37,8.37,0,0,0-11.4,0,.37.37,0,0,0-.12.26.39.39,0,0,0,.11.27l1.35,1.37a.36.36,0,0,0,.51,0A5.77,5.77,0,0,1,1490.79,149Zm0-4.44a10.13,10.13,0,0,1,7,2.78.36.36,0,0,0,.51,0l1.35-1.37a.36.36,0,0,0,.11-.26.36.36,0,0,0-.12-.27,12.75,12.75,0,0,0-17.63,0,.39.39,0,0,0-.11.27.36.36,0,0,0,.11.26l1.35,1.37a.36.36,0,0,0,.51,0A10.13,10.13,0,0,1,1490.79,144.58Z"/><g class="cls-31"><rect x="1112.74" y="121.66" width="438.46" height="53.78"/><g class="cls-30"><rect x="1476.01" y="136.07" width="29.55" height="24.51"/></g></g><path d="M1473.64,142.31h1.17a1.17,1.17,0,0,1,1.17,1.17v10.13a1.17,1.17,0,0,1-1.17,1.17h-1.17a1.17,1.17,0,0,1-1.17-1.17V143.48A1.18,1.18,0,0,1,1473.64,142.31Zm-5.45,2.73h1.17a1.17,1.17,0,0,1,1.17,1.17v7.4a1.17,1.17,0,0,1-1.17,1.17h-1.17a1.17,1.17,0,0,1-1.17-1.17v-7.4A1.17,1.17,0,0,1,1468.19,145Zm-5.46,2.73h1.17a1.17,1.17,0,0,1,1.17,1.17v4.67a1.17,1.17,0,0,1-1.17,1.17h-1.17a1.17,1.17,0,0,1-1.17-1.17v-4.67A1.17,1.17,0,0,1,1462.73,147.77Zm-5.46,2.34h1.17a1.17,1.17,0,0,1,1.17,1.17v2.33a1.17,1.17,0,0,1-1.17,1.17h-1.17a1.17,1.17,0,0,1-1.17-1.17v-2.33A1.17,1.17,0,0,1,1457.27,150.11Z"/><g class="cls-32"><rect x="1112.74" y="121.66" width="438.46" height="53.78"/><g class="cls-30"><rect x="1450.26" y="136.47" width="31.57" height="24.16"/></g></g><path class="cls-17" d="M1256.62,1057.49h150.79a2.93,2.93,0,0,1,0,5.85H1256.62a2.93,2.93,0,0,1,0-5.85Z"/><g class="cls-33"><g class="cls-34"><rect class="cls-5" x="1107.41" y="736.51" width="132.52" height="29.33"/></g></g><path class="cls-20" d="M1505.33,122h-45.06a6.38,6.38,0,0,0-6.1,6.38h-.06v3.74a24.37,24.37,0,0,1-24.38,24.38H1234.59a24.38,24.38,0,0,1-24.39-24.38v-4a6.37,6.37,0,0,0-6.09-6.15h-44.75a46.65,46.65,0,0,0-46.65,46.64v856.24a46.65,46.65,0,0,0,46.65,46.64h346a46.65,46.65,0,0,0,46.65-46.64V168.64A46.65,46.65,0,0,0,1505.33,122Z"/><path class="cls-21" d="M1578.87,325.17V168.44A72.44,72.44,0,0,0,1506.43,96H1158.26a72.44,72.44,0,0,0-72.44,72.44V230h-2.26v38.32h2.26v32.38a5.82,5.82,0,0,0-2.49,4.78V370.2a5.83,5.83,0,0,0,2.49,4.78v18a5.82,5.82,0,0,0-2.49,4.78V462.5a5.82,5.82,0,0,0,2.49,4.78v556.28a72.44,72.44,0,0,0,72.44,72.44h348.17a72.44,72.44,0,0,0,72.44-72.44V442.1a3.86,3.86,0,0,0,3.12-3.79V329A3.86,3.86,0,0,0,1578.87,325.17ZM1552,1024.88a46.65,46.65,0,0,1-46.65,46.64h-346a46.65,46.65,0,0,1-46.65-46.64V168.64A46.65,46.65,0,0,1,1159.36,122h44.75a6.37,6.37,0,0,1,6.09,6.15v4a24.38,24.38,0,0,0,24.39,24.38h195.14a24.37,24.37,0,0,0,24.38-24.38v-3.74h.06a6.38,6.38,0,0,1,6.1-6.38h45.06A46.65,46.65,0,0,1,1552,168.64Z"/><path d="M1508,101.38H1157.56a65,65,0,0,0-65,65v859.28a65,65,0,0,0,65,65H1508a65,65,0,0,0,65-65V166.4A65,65,0,0,0,1508,101.38Zm44,923.5a46.65,46.65,0,0,1-46.65,46.64h-346a46.65,46.65,0,0,1-46.65-46.64V168.64A46.65,46.65,0,0,1,1159.36,122h44.75a6.37,6.37,0,0,1,6.09,6.15v4a24.38,24.38,0,0,0,24.39,24.38h195.14a24.37,24.37,0,0,0,24.38-24.38v-3.74h.06a6.38,6.38,0,0,1,6.1-6.38h45.06A46.65,46.65,0,0,1,1552,168.64Z"/><path class="cls-5" d="M1154.05,552.91a181.29,181.29,0,0,1,362.57,0v215s-1.2,18.69-18.56,25.19l-147,26.84c-18.5,2.9-30.31.25-30.31.25l-1-.38-147-26.83c-17.36-6.45-18.56-25.2-18.56-25.2v-216"/><path class="cls-1" d="M1429.11,581.58A94.55,94.55,0,1,1,1358.57,468,94.58,94.58,0,0,1,1429.11,581.58Z"/><path d="M1298,432.43l5.87-1.45,8,32.14,9.72-2.4,1.33,5.37-15.6,3.85Z"/><path d="M1334.89,443h8.34v5.5h-8.34v11.3h10.49v5.49h-16.55l-.06-38.64h16.54v5.49h-10.48Z"/><path d="M1369.88,430.48c5.74,1.45,7.83,5.62,6.31,11.62l-.31,1.2-5.56-1.39.38-1.58c.69-2.65-.13-4-2-4.42s-3.22.25-3.85,3c-2,7.7,9.21,12.06,6.5,22.79-1.52,6-5.37,8.65-11.18,7.2s-7.89-5.62-6.38-11.62l.57-2.27,5.56,1.39-.69,2.65c-.7,2.65.25,3.91,2.14,4.42s3.29-.19,4-2.84c2-7.71-9.22-12.06-6.5-22.8C1360.34,431.68,1364.13,429,1369.88,430.48Z"/><rect class="cls-1" x="1248.83" y="725.99" width="193.92" height="66.93"/><path d="M1269,735.53v5.05c0,6.19-3,9.53-9,9.53h-2.85v14.53h-6.06V726h8.84C1266,726,1269,729.34,1269,735.53Zm-11.94-4v13.07h2.84c2,0,3-.88,3-3.66v-5.81c0-2.78-1.07-3.66-3-3.66l-2.84.06Z"/><path d="M1276.61,735.27c0-6.18,3.29-9.72,9.22-9.72s9.22,3.54,9.22,9.72v20.08c0,6.19-3.28,9.73-9.22,9.73s-9.22-3.54-9.22-9.73Zm6.06,20.46c0,2.78,1.2,3.79,3.16,3.79s3.16-1.07,3.16-3.79V734.9c0-2.78-1.2-3.79-3.16-3.79s-3.16,1.07-3.16,3.79Z"/><path d="M1302.25,726H1321v5.5h-6.37v33.15h-6.07V731.49h-6.31V726Z"/><path d="M1334.77,742.28h8.33v5.5h-8.33v11.3h10.48v5.49h-16.54V725.93h16.54v5.49h-10.48Z"/><path d="M1373.67,764.64h-6.13l-1.07-7H1359l-1.08,7h-5.55l6.18-38.65h8.91Zm-13.83-12.25h5.87l-2.91-19.51Z"/><path d="M1387.3,726V755.8c0,2.77,1.2,3.72,3.16,3.72s3.16-1,3.16-3.72V726h5.75v29.43c0,6.19-3.1,9.72-9,9.72s-9-3.53-9-9.72V726Z"/><path d="M1428.79,726l-6.38,18.76,6.82,19.89h-6.38l-5-15.28-5.06,15.28h-5.68l6.82-19.89L1407.57,726h6.32l4.61,14.27,4.67-14.27Z"/><path class="cls-22" d="M1174.7,557.84a160.32,160.32,0,1,1,320.64,0V748s-1.07,16.54-16.41,22.29l-130,23.74c-16.35,2.59-26.83.25-26.83.25l-.89-.31-130.07-23.81c-15.35-5.68-16.42-22.29-16.42-22.29V556.77"/><path d="M1338.81,652c-22.35-1-23.3-29.24-23.3-29.24l-2.08,1c-.76,2-2.21,7.71-3.16,22-1.33,19.7,19.38,20.71,19.38,20.71S1340.45,661.84,1338.81,652Z"/><rect x="1335.08" y="655.59" width="9.22" height="48.94"/><rect x="1352.32" y="655.59" width="9.22" height="48.94"/><path d="M1378.27,627.8c-1.13-.63-2.27-1.26-3.4-1.83-.32-.12-.57-.25-.89-.38a9.31,9.31,0,0,1-1.2-.57,13.7,13.7,0,0,1-2.84-1.26,1.22,1.22,0,0,1-.51-.25c-.06,0-.06-.06-.12-.06V705h9.22v-77A.46.46,0,0,1,1378.27,627.8Z"/><path d="M1391,634.37c-1-.57-2.84-1.14-3.91-2.15v72h9.21V636.71C1394.38,636.45,1392.74,635.25,1391,634.37Z"/><path d="M1409.28,643.4a17.22,17.22,0,0,1-3.79-2.08v63.14h9.22V645.93C1412.88,645,1411.11,644.16,1409.28,643.4Z"/><path d="M1432.45,654.45c-.12-.06-.25-.19-.38-.25s-.06,0-.06-.07h-.13a2.63,2.63,0,0,1-.44-.19,14.9,14.9,0,0,1-2.33-1.07,1,1,0,0,1-.32-.19c-1-.44-2-.88-2.9-1.39h-.07a8.25,8.25,0,0,1-2.14-1l-.19-.19v54.56h9.22v-50A1,1,0,0,0,1432.45,654.45Z"/><rect x="1318.67" y="655.59" width="9.22" height="48.94"/><path d="M1310.65,623.51a2,2,0,0,0-.51.25,17.84,17.84,0,0,1-2.84,1.26c-.38.19-.76.38-1.2.57s-.57.26-.88.38c-1.14.57-2.21,1.2-3.41,1.83-.13.07-.19.13-.32.13v77h9.22l-.06-81.46Z"/><path d="M1289.12,634.37c1-.57,2.84-1.14,3.91-2.15v72h-9.22V636.71C1285.77,636.45,1287.41,635.25,1289.12,634.37Z"/><path d="M1270.87,643.4a19,19,0,0,0,3.79-2.08v63.14h-9.22V645.93C1267.27,645,1269,644.16,1270.87,643.4Z"/><path d="M1340,652.05c23.62-1,24.69-30.94,24.69-30.94l2.21,1.07c.76,2.15,2.34,8.15,3.35,23.24,1.38,20.84-20.53,21.91-20.53,21.91S1338.24,662.47,1340,652.05Z"/><path class="cls-23" d="M1339.5,638.22c-46.28-17.05-42.18-71.22-42.18-71.22l2.15-4.61-3.28-4.93s-.63-61.38,42.68-61.38,45,61.06,45,61.06l-3.6,5.56,1.2,4.3s4.11,54.17-42.18,71.22"/><path class="cls-23" d="M1336.22,522.92s-26.27-4.61-39.09,21.66"/><path class="cls-23" d="M1296.12,547.93s-19.7,11.8.32,24"/><path class="cls-23" d="M1383.07,547.36s19,12.88-1.7,23.93"/><line class="cls-23" x1="1339.19" y1="566.36" x2="1339.19" y2="579.18"/><path class="cls-23" d="M1361.6,563.08a4.29,4.29,0,1,1-4.29-4.29A4.24,4.24,0,0,1,1361.6,563.08Z"/><path class="cls-23" d="M1325.87,563.08a4.3,4.3,0,1,1-4.3-4.29A4.25,4.25,0,0,1,1325.87,563.08Z"/><path class="cls-23" d="M1349,563s7.89-9.09,17.49.26"/><path class="cls-23" d="M1313.43,563s7.89-9.09,17.49.26"/><path class="cls-23" d="M1329.34,556.77s-12.06,1-18.95-2.72"/><path class="cls-23" d="M1330,579.43s9.1,16.49,18.25,0"/><path class="cls-23" d="M1334.71,491.29l-.19,4.42s-10.49,58.78,47.61,47.92C1382.19,543.63,1392,485.54,1334.71,491.29Z"/><path class="cls-23" d="M1380.55,541.74c-16.74-42.88-46-37.7-46-37.7"/><path class="cls-23" d="M1381.05,543.51s-32.26-28.55-45.33-26.84"/><path class="cls-23" d="M1342.35,534.6s30.05,7.9,35.23,8.15"/><path class="cls-23" d="M1297.58,539s17.23-40.85,35.74-37.44"/><path class="cls-23" d="M1298,540.79s15-30.56,34.73-30.06"/><path class="cls-23" d="M1344.3,596.48a6.53,6.53,0,0,1-8.39-.5"/><path class="cls-23" d="M1265,647.5v.19l48.44-23.86a4.11,4.11,0,0,1,.44-1Z"/><path class="cls-24" d="M1260.51,617.83l27.41-3.29c4.92.32,3.09-4.42,3.09-4.42l-6.57-49.88s1-4.93-4.73-3.92-28.54,3.6-28.54,3.6-4.61-.5-3.6,4.74,3.6,28.54,3.6,28.54l2.27,18.69"/><path class="cls-23" d="M1223.7,703.2l31.82.31,4.49-34.28c7.83-12.32,1.26-17.56,1.26-17.56,7.7-9-1.64-12.63-1.64-12.63,1.32-3.28-5.94-7.7-5.94-7.7-3.09-7.39-7.45-5.94-7.45-5.94a98.9,98.9,0,0,1,10-6.06c5.37-2.78-.63-5.24-.63-5.24l-6.25,1-10.93,4.42.07.51-8.15,10.86c-6.88,11.17-1.07,13.64-1.07,13.64l6.5,19.51s.51,7.58.57,10.48-12.25,28.23-12.25,28.23"/><line class="cls-23" x1="1234.18" y1="636.58" x2="1245.74" y2="625.91"/><line class="cls-23" x1="1253.69" y1="631.34" x2="1242.07" y2="639.36"/><path class="cls-23" d="M1259,639.17s-6.57,5.24-9.22,5.93"/><path class="cls-23" d="M1260.76,651a9.52,9.52,0,0,1-6.06,1"/><path class="cls-23" d="M1261.14,619.09s2.46,3.72-7.39,10.1"/><path class="cls-23" d="M1347.4,554.11s15.15-7.32,23-2.84"/><line class="cls-23" x1="1432.77" y1="654.64" x2="1365.96" y2="621.62"/><path class="cls-25" d="M1342.66,591.37s8-7.77,17.49-.89c0,0,5.43,4.3,9.47,2.15s-4.86,6.76-14.46,4C1355.16,596.67,1350.55,597.24,1342.66,591.37Z"/><path class="cls-25" d="M1337,591.5s-8-7.71-17.49-.89c0,0-5.43,4.29-9.47,2.15s4.86,6.75,14.46,4C1324.6,596.8,1329.21,597.43,1337,591.5Z"/><circle class="cls-25" cx="1321.57" cy="563.08" r="1.01"/><circle class="cls-25" cx="1357.25" cy="563.08" r="1.01"/><path class="cls-22" d="M1154.18,553.29a181.29,181.29,0,0,1,362.57,0v215s-1.2,18.69-18.56,25.19l-147,26.84c-18.51,2.9-30.31.25-30.31.25l-1-.38L1172.8,793.3c-17.36-6.44-18.56-25.19-18.56-25.19V552"/></g><g id="Calque_2" data-name="Calque 2"><rect x="719.88" y="46.18" width="480.34" height="988.17" rx="61.84"/><g id="News_-_Explore_Topic-3" data-name="News - Explore Topic"><rect id="Background-3" data-name="Background" class="cls-5" x="739.81" y="65.72" width="438.88" height="950.49"/></g><g id="Status_Bar_-_Mockup_Default_-_Light-3" data-name="Status Bar - Mockup Default - Light"><text class="cls-6" transform="translate(768.02 98.88)">9:41 <tspan class="cls-7" x="27.5" y="0">A</tspan><tspan x="36.04" y="0">M</tspan></text></g><g class="cls-35"><g class="cls-36"><rect class="cls-10" x="1132.6" y="85.92" width="25.72" height="13.25" rx="3.12"/></g></g><path d="M1159.5,90.21v4.68a2.54,2.54,0,0,0,0-4.68"/><g class="cls-37"><g class="cls-36"><rect class="cls-12" x="1153.65" y="84.36" width="13.25" height="16.37"/></g></g><rect x="1134.94" y="88.26" width="21.05" height="8.58" rx="1.56"/><g class="cls-38"><rect x="739.74" y="65.66" width="438.46" height="53.78"/><g class="cls-39"><rect x="1129.1" y="82.41" width="32.74" height="20.27"/></g></g><path d="M1120.38,96.28a.36.36,0,0,0,.11-.27.36.36,0,0,0-.12-.27,4,4,0,0,0-5.16,0,.36.36,0,0,0-.12.27.35.35,0,0,0,.1.27l2.34,2.35a.36.36,0,0,0,.52,0ZM1117.79,93a5.75,5.75,0,0,1,3.85,1.48.36.36,0,0,0,.51,0l1.35-1.37a.39.39,0,0,0,.11-.27.37.37,0,0,0-.12-.26,8.37,8.37,0,0,0-11.4,0,.37.37,0,0,0-.12.26.39.39,0,0,0,.11.27l1.35,1.37a.36.36,0,0,0,.51,0A5.77,5.77,0,0,1,1117.79,93Zm0-4.44a10.13,10.13,0,0,1,7,2.78.36.36,0,0,0,.51,0l1.35-1.37a.36.36,0,0,0,.11-.26.36.36,0,0,0-.12-.27,12.75,12.75,0,0,0-17.63,0,.39.39,0,0,0-.11.27.36.36,0,0,0,.11.26l1.35,1.37a.36.36,0,0,0,.51,0A10.13,10.13,0,0,1,1117.79,88.58Z"/><g class="cls-40"><rect x="739.74" y="65.66" width="438.46" height="53.78"/><g class="cls-39"><rect x="1103.01" y="80.07" width="29.55" height="24.51"/></g></g><path d="M1100.64,86.31h1.17a1.17,1.17,0,0,1,1.17,1.17V97.61a1.17,1.17,0,0,1-1.17,1.17h-1.17a1.17,1.17,0,0,1-1.17-1.17V87.48A1.18,1.18,0,0,1,1100.64,86.31ZM1095.19,89h1.17a1.17,1.17,0,0,1,1.17,1.17v7.4a1.17,1.17,0,0,1-1.17,1.17h-1.17a1.17,1.17,0,0,1-1.17-1.17v-7.4A1.17,1.17,0,0,1,1095.19,89Zm-5.46,2.73h1.17a1.17,1.17,0,0,1,1.17,1.17v4.67a1.17,1.17,0,0,1-1.17,1.17h-1.17a1.17,1.17,0,0,1-1.17-1.17V92.94A1.17,1.17,0,0,1,1089.73,91.77Zm-5.46,2.34h1.17a1.17,1.17,0,0,1,1.17,1.17v2.33a1.17,1.17,0,0,1-1.17,1.17h-1.17a1.17,1.17,0,0,1-1.17-1.17V95.28A1.17,1.17,0,0,1,1084.27,94.11Z"/><g class="cls-41"><rect x="739.74" y="65.66" width="438.46" height="53.78"/><g class="cls-39"><rect x="1077.26" y="80.47" width="31.57" height="24.16"/></g></g><path class="cls-17" d="M883.62,1001.49h150.79a2.93,2.93,0,0,1,0,5.85H883.62a2.93,2.93,0,0,1,0-5.85Z"/><g class="cls-42"><g class="cls-43"><rect class="cls-5" x="734.41" y="680.51" width="132.52" height="29.33"/></g></g><path class="cls-20" d="M1132.33,66h-45.06a6.38,6.38,0,0,0-6.1,6.38h-.06v3.74a24.37,24.37,0,0,1-24.38,24.38H861.59A24.38,24.38,0,0,1,837.2,76.12v-4A6.37,6.37,0,0,0,831.11,66H786.36a46.65,46.65,0,0,0-46.65,46.64V968.88a46.65,46.65,0,0,0,46.65,46.64h346A46.65,46.65,0,0,0,1179,968.88V112.64A46.65,46.65,0,0,0,1132.33,66Z"/><path class="cls-21" d="M1205.87,269.17V112.44A72.44,72.44,0,0,0,1133.43,40H785.26a72.44,72.44,0,0,0-72.44,72.44V174h-2.26v38.32h2.26v32.38a5.82,5.82,0,0,0-2.49,4.78V314.2a5.83,5.83,0,0,0,2.49,4.78v18a5.82,5.82,0,0,0-2.49,4.78V406.5a5.82,5.82,0,0,0,2.49,4.78V967.56A72.44,72.44,0,0,0,785.26,1040h348.17a72.44,72.44,0,0,0,72.44-72.44V386.1a3.86,3.86,0,0,0,3.12-3.79V273A3.86,3.86,0,0,0,1205.87,269.17ZM1179,968.88a46.65,46.65,0,0,1-46.65,46.64h-346a46.65,46.65,0,0,1-46.65-46.64V112.64A46.65,46.65,0,0,1,786.36,66h44.75a6.37,6.37,0,0,1,6.09,6.15v4a24.38,24.38,0,0,0,24.39,24.38h195.14a24.37,24.37,0,0,0,24.38-24.38V72.38h.06a6.38,6.38,0,0,1,6.1-6.38h45.06A46.65,46.65,0,0,1,1179,112.64Z"/><path d="M1135,45.38H784.56a65,65,0,0,0-65,65V969.68a65,65,0,0,0,65,65H1135a65,65,0,0,0,65-65V110.4A65,65,0,0,0,1135,45.38Zm44,923.5a46.65,46.65,0,0,1-46.65,46.64h-346a46.65,46.65,0,0,1-46.65-46.64V112.64A46.65,46.65,0,0,1,786.36,66h44.75a6.37,6.37,0,0,1,6.09,6.15v4a24.38,24.38,0,0,0,24.39,24.38h195.14a24.37,24.37,0,0,0,24.38-24.38V72.38h.06a6.38,6.38,0,0,1,6.1-6.38h45.06A46.65,46.65,0,0,1,1179,112.64Z"/></g><g id="Calque_3" data-name="Calque 3"><path class="cls-5" d="M781.05,496.91a181.29,181.29,0,0,1,362.57,0v215s-1.2,18.69-18.56,25.19l-147,26.84c-18.5,2.9-30.31.25-30.31.25l-1-.38-147-26.83c-17.36-6.45-18.56-25.2-18.56-25.2v-216"/><path class="cls-1" d="M1056.11,525.58A94.55,94.55,0,1,1,985.57,412,94.58,94.58,0,0,1,1056.11,525.58Z"/><path d="M925,376.43l5.87-1.45,8,32.14,9.72-2.4,1.33,5.37-15.6,3.85Z"/><path d="M961.89,387h8.34v5.5h-8.34v11.3h10.49v5.49H955.83l-.06-38.64h16.54v5.49H961.83Z"/><path d="M996.88,374.48c5.74,1.45,7.83,5.62,6.31,11.62l-.31,1.2-5.56-1.39.38-1.58c.69-2.65-.13-4-2-4.42s-3.22.25-3.85,3c-2,7.7,9.21,12.06,6.5,22.79-1.52,6-5.37,8.65-11.18,7.2s-7.89-5.62-6.38-11.62l.57-2.27,5.56,1.39-.69,2.65c-.7,2.65.25,3.91,2.14,4.42s3.29-.19,4-2.84c2-7.71-9.22-12.06-6.5-22.8C987.34,375.68,991.13,373,996.88,374.48Z"/><rect class="cls-1" x="875.83" y="669.99" width="193.92" height="66.93"/><path d="M896,679.53v5.05c0,6.19-3,9.53-9,9.53h-2.85v14.53H878.1V670h8.84C893,670,896,673.34,896,679.53Zm-11.94-4v13.07h2.84c2,0,3-.88,3-3.66v-5.81c0-2.78-1.07-3.66-3-3.66l-2.84.06Z"/><path d="M903.61,679.27c0-6.18,3.29-9.72,9.22-9.72s9.22,3.54,9.22,9.72v20.08c0,6.19-3.28,9.73-9.22,9.73s-9.22-3.54-9.22-9.73Zm6.06,20.46c0,2.78,1.2,3.79,3.16,3.79s3.16-1.07,3.16-3.79V678.9c0-2.78-1.2-3.79-3.16-3.79s-3.16,1.07-3.16,3.79Z"/><path d="M929.25,670H948v5.5h-6.37v33.15h-6.07V675.49h-6.31V670Z"/><path d="M961.77,686.28h8.33v5.5h-8.33v11.3h10.48v5.49H955.71V669.93h16.54v5.49H961.77Z"/><path d="M1000.67,708.64h-6.13l-1.07-7H986l-1.08,7h-5.55L985.57,670h8.91Zm-13.83-12.25h5.87l-2.91-19.51Z"/><path d="M1014.3,670V699.8c0,2.77,1.2,3.72,3.16,3.72s3.16-1,3.16-3.72V670h5.75v29.43c0,6.19-3.1,9.72-9,9.72s-9-3.53-9-9.72V670Z"/><path d="M1055.79,670l-6.38,18.76,6.82,19.89h-6.38l-5-15.28-5.06,15.28h-5.68l6.82-19.89L1034.57,670h6.32l4.61,14.27,4.67-14.27Z"/><path class="cls-22" d="M801.7,501.84a160.32,160.32,0,1,1,320.64,0V692s-1.07,16.54-16.41,22.29L975.91,738c-16.35,2.59-26.83.25-26.83.25l-.89-.31L818.12,714.13c-15.35-5.68-16.42-22.29-16.42-22.29V500.77"/><path d="M965.81,596c-22.35-1-23.3-29.24-23.3-29.24l-2.08,1c-.76,2-2.21,7.71-3.16,22-1.33,19.7,19.38,20.71,19.38,20.71S967.45,605.84,965.81,596Z"/><rect x="962.08" y="599.59" width="9.22" height="48.94"/><rect x="979.32" y="599.59" width="9.22" height="48.94"/><path d="M1005.27,571.8c-1.13-.63-2.27-1.26-3.4-1.83-.32-.12-.57-.25-.89-.38a9.31,9.31,0,0,1-1.2-.57,13.7,13.7,0,0,1-2.84-1.26,1.22,1.22,0,0,1-.51-.25c-.06,0-.06-.06-.12-.06V649h9.22v-77A.46.46,0,0,1,1005.27,571.8Z"/><path d="M1018,578.37c-1-.57-2.84-1.14-3.91-2.15v72h9.21V580.71C1021.38,580.45,1019.74,579.25,1018,578.37Z"/><path d="M1036.28,587.4a17.22,17.22,0,0,1-3.79-2.08v63.14h9.22V589.93C1039.88,589,1038.11,588.16,1036.28,587.4Z"/><path d="M1059.45,598.45c-.12-.06-.25-.19-.38-.25s-.06,0-.06-.07h-.13a2.63,2.63,0,0,1-.44-.19,14.9,14.9,0,0,1-2.33-1.07,1,1,0,0,1-.32-.19c-1-.44-2-.88-2.9-1.39h-.07a8.25,8.25,0,0,1-2.14-1l-.19-.19v54.56h9.22v-50A1,1,0,0,0,1059.45,598.45Z"/><rect x="945.67" y="599.59" width="9.22" height="48.94"/><path d="M937.65,567.51a2,2,0,0,0-.51.25A17.84,17.84,0,0,1,934.3,569c-.38.19-.76.38-1.2.57s-.57.26-.88.38c-1.14.57-2.21,1.2-3.41,1.83-.13.07-.19.13-.32.13v77h9.22l-.06-81.46Z"/><path d="M916.12,578.37c1-.57,2.84-1.14,3.91-2.15v72h-9.22V580.71C912.77,580.45,914.41,579.25,916.12,578.37Z"/><path d="M897.87,587.4a19,19,0,0,0,3.79-2.08v63.14h-9.22V589.93C894.27,589,896,588.16,897.87,587.4Z"/><path d="M967,596.05c23.62-1,24.69-30.94,24.69-30.94l2.21,1.07c.76,2.15,2.34,8.15,3.35,23.24,1.38,20.84-20.53,21.91-20.53,21.91S965.24,606.47,967,596.05Z"/><path class="cls-23" d="M966.5,582.22C920.22,565.17,924.32,511,924.32,511l2.15-4.61-3.28-4.93s-.63-61.38,42.68-61.38,45,61.06,45,61.06l-3.6,5.56,1.2,4.3s4.11,54.17-42.18,71.22"/><path class="cls-23" d="M963.22,466.92s-26.27-4.61-39.09,21.66"/><path class="cls-23" d="M923.12,491.93s-19.7,11.8.32,24"/><path class="cls-23" d="M1010.07,491.36s19,12.88-1.7,23.93"/><line class="cls-23" x1="966.19" y1="510.36" x2="966.19" y2="523.18"/><path class="cls-23" d="M988.6,507.08a4.29,4.29,0,1,1-4.29-4.29A4.24,4.24,0,0,1,988.6,507.08Z"/><path class="cls-23" d="M952.87,507.08a4.3,4.3,0,1,1-4.3-4.29A4.25,4.25,0,0,1,952.87,507.08Z"/><path class="cls-23" d="M976,507s7.89-9.09,17.49.26"/><path class="cls-23" d="M940.43,507s7.89-9.09,17.49.26"/><path class="cls-23" d="M956.34,500.77s-12.06,1-19-2.72"/><path class="cls-23" d="M957,523.43s9.1,16.49,18.25,0"/><path class="cls-23" d="M961.71,435.29l-.19,4.42s-10.49,58.78,47.61,47.92C1009.19,487.63,1019,429.54,961.71,435.29Z"/><path class="cls-23" d="M1007.55,485.74c-16.74-42.88-46-37.7-46-37.7"/><path class="cls-23" d="M1008.05,487.51S975.79,459,962.72,460.67"/><path class="cls-23" d="M969.35,478.6s30,7.9,35.23,8.15"/><path class="cls-23" d="M924.58,483s17.23-40.85,35.74-37.44"/><path class="cls-23" d="M925,484.79s15-30.56,34.73-30.06"/><path class="cls-23" d="M971.3,540.48a6.53,6.53,0,0,1-8.39-.5"/><path class="cls-23" d="M892,591.5v.19l48.44-23.86a4.11,4.11,0,0,1,.44-1Z"/><path class="cls-24" d="M887.51,561.83l27.41-3.29c4.92.32,3.09-4.42,3.09-4.42l-6.57-49.88s1-4.93-4.73-3.92-28.54,3.6-28.54,3.6-4.61-.5-3.6,4.74,3.6,28.54,3.6,28.54l2.27,18.69"/><path class="cls-23" d="M850.7,647.2l31.82.31L887,613.23c7.83-12.32,1.26-17.56,1.26-17.56,7.7-9-1.64-12.63-1.64-12.63,1.32-3.28-5.94-7.7-5.94-7.7-3.09-7.39-7.45-5.94-7.45-5.94a98.9,98.9,0,0,1,10-6.06c5.37-2.78-.63-5.24-.63-5.24l-6.25,1-10.93,4.42.07.51-8.15,10.86c-6.88,11.17-1.07,13.64-1.07,13.64l6.5,19.51s.51,7.58.57,10.48-12.25,28.23-12.25,28.23"/><line class="cls-23" x1="861.18" y1="580.58" x2="872.74" y2="569.91"/><line class="cls-23" x1="880.69" y1="575.34" x2="869.07" y2="583.36"/><path class="cls-23" d="M886,583.17s-6.57,5.24-9.22,5.93"/><path class="cls-23" d="M887.76,595a9.52,9.52,0,0,1-6.06,1"/><path class="cls-23" d="M888.14,563.09s2.46,3.72-7.39,10.1"/><path class="cls-23" d="M974.4,498.11s15.15-7.32,23.05-2.84"/><line class="cls-23" x1="1059.77" y1="598.64" x2="992.96" y2="565.62"/><path class="cls-25" d="M969.66,535.37s8-7.77,17.49-.89c0,0,5.43,4.3,9.47,2.15s-4.86,6.76-14.46,4C982.16,540.67,977.55,541.24,969.66,535.37Z"/><path class="cls-25" d="M964,535.5s-8-7.71-17.49-.89c0,0-5.43,4.29-9.47,2.15s4.86,6.75,14.46,4C951.6,540.8,956.21,541.43,964,535.5Z"/><circle class="cls-25" cx="948.57" cy="507.08" r="1.01"/><circle class="cls-25" cx="984.25" cy="507.08" r="1.01"/><path class="cls-22" d="M781.18,497.29a181.29,181.29,0,0,1,362.57,0v215s-1.2,18.69-18.56,25.19l-147,26.84c-18.51,2.9-30.31.25-30.31.25l-1-.38L799.8,737.3c-17.36-6.44-18.56-25.19-18.56-25.19V496"/></g></svg>