<svg xmlns="http://www.w3.org/2000/svg" viewBox="0 0 579.2 717.05"><defs><style>.cls-1{fill:#1f3379;}.cls-2,.cls-4,.cls-5{fill:none;}.cls-3,.cls-7{fill:#e9c384;}.cls-4,.cls-5,.cls-6,.cls-7{stroke:#e9c384;stroke-miterlimit:10;}.cls-4{stroke-width:5px;}.cls-5,.cls-6,.cls-7{stroke-width:2px;}.cls-6{fill:#de242a;}</style></defs><title>logo</title><g id="Calque_2" data-name="Calque 2"><g id="Calque_1-2" data-name="Calque 1"><path class="cls-1" d="M2.3,289C2.3,130.4,130.8,1.9,289.4,1.9S576.5,130.4,576.5,289V629.4s-1.9,29.6-29.4,39.9L314.3,711.8c-29.3,4.6-48,.4-48,.4l-1.6-.6L31.9,669.1C4.4,658.9,2.5,629.2,2.5,629.2V287.1"/><path class="cls-2" d="M437.9,334.4C419.1,414.9,338.5,464.9,258,446.1S127.5,346.7,146.3,266.2s99.4-130.5,179.9-111.7A149.57,149.57,0,0,1,437.9,334.4Z"/><path class="cls-3" d="M230.2,98.2l9.3-2.3,12.7,50.9,15.4-3.8,2.1,8.5L245,157.6Z"/><path class="cls-3" d="M288.7,115h13.2v8.7H288.7v17.9h16.6v8.7H279.1L279,89.1h26.2v8.7H288.6Z"/><path class="cls-3" d="M344.1,95.1c9.1,2.3,12.4,8.9,10,18.4l-.5,1.9-8.8-2.2.6-2.5c1.1-4.2-.2-6.3-3.2-7s-5.1.4-6.1,4.7c-3.1,12.2,14.6,19.1,10.3,36.1-2.4,9.5-8.5,13.7-17.7,11.4s-12.5-8.9-10.1-18.4l.9-3.6,8.8,2.2-1.1,4.2c-1.1,4.2.4,6.2,3.4,7s5.2-.3,6.3-4.5c3.1-12.2-14.6-19.1-10.3-36.1C329,97,335,92.8,344.1,95.1Z"/><rect class="cls-2" x="152.4" y="563.1" width="307.1" height="106"/><path class="cls-3" d="M184.4,578.2v8c0,9.8-4.7,15.1-14.3,15.1h-4.5v23H156V563.1h14C179.6,563.1,184.4,568.4,184.4,578.2Zm-18.9-6.3v20.7H170c3.1,0,4.7-1.4,4.7-5.8v-9.2c0-4.4-1.7-5.8-4.7-5.8l-4.5.1Z"/><path class="cls-3" d="M196.4,577.8c0-9.8,5.2-15.4,14.6-15.4s14.6,5.6,14.6,15.4v31.8c0,9.8-5.2,15.4-14.6,15.4s-14.6-5.6-14.6-15.4Zm9.6,32.4c0,4.4,1.9,6,5,6s5-1.7,5-6v-33c0-4.4-1.9-6-5-6s-5,1.7-5,6Z"/><path class="cls-3" d="M237,563.1h29.7v8.7H256.6v52.5H247V571.8H237v-8.7Z"/><path class="cls-3" d="M288.5,588.9h13.2v8.7H288.5v17.9h16.6v8.7H278.9V563h26.2v8.7H288.5Z"/><path class="cls-3" d="M350.1,624.3h-9.7l-1.7-11.1H326.9l-1.7,11.1h-8.8l9.8-61.2h14.1Zm-21.9-19.4h9.3L332.9,574Z"/><path class="cls-3" d="M371.7,563.1v47.2c0,4.4,1.9,5.9,5,5.9s5-1.6,5-5.9V563.1h9.1v46.6c0,9.8-4.9,15.4-14.3,15.4s-14.3-5.6-14.3-15.4V563.1Z"/><path class="cls-3" d="M437.4,563.1l-10.1,29.7,10.8,31.5H428l-7.9-24.2-8,24.2h-9l10.8-31.5-10.1-29.7h10l7.3,22.6,7.4-22.6Z"/><path class="cls-4" d="M35,296.8C35,156.6,148.7,42.9,288.9,42.9S542.8,156.6,542.8,296.8V597.9s-1.7,26.2-26,35.3L310.9,670.8c-25.9,4.1-42.5.4-42.5.4l-1.4-.5L61,633c-24.3-9-26-35.3-26-35.3V295.1"/><path class="cls-3" d="M294.9,445.9c-35.4-1.6-36.9-46.3-36.9-46.3l-3.3,1.6c-1.2,3.2-3.5,12.2-5,34.8-2.1,31.2,30.7,32.8,30.7,32.8S297.5,461.5,294.9,445.9Z"/><rect class="cls-3" x="289" y="451.6" width="14.6" height="77.5"/><rect class="cls-3" x="316.3" y="451.6" width="14.6" height="77.5"/><path class="cls-3" d="M357.4,407.6c-1.8-1-3.6-2-5.4-2.9-.5-.2-.9-.4-1.4-.6a16.32,16.32,0,0,1-1.9-.9,22.81,22.81,0,0,1-4.5-2,2,2,0,0,1-.8-.4c-.1,0-.1-.1-.2-.1V529.8h14.6v-122A.76.76,0,0,1,357.4,407.6Z"/><path class="cls-3" d="M377.6,418c-1.6-.9-4.5-1.8-6.2-3.4V528.7H386v-107C382.9,421.3,380.3,419.4,377.6,418Z"/><path class="cls-3" d="M406.5,432.3a26.93,26.93,0,0,1-6-3.3V529h14.6V436.3C412.2,434.9,409.4,433.5,406.5,432.3Z"/><path class="cls-3" d="M443.2,449.8c-.2-.1-.4-.3-.6-.4s-.1,0-.1-.1h-.2a4.88,4.88,0,0,1-.7-.3,24.77,24.77,0,0,1-3.7-1.7,2.19,2.19,0,0,1-.5-.3c-1.6-.7-3.1-1.4-4.6-2.2h-.1a13.26,13.26,0,0,1-3.4-1.6l-.3-.3v86.4h14.6V450.1A1.38,1.38,0,0,0,443.2,449.8Z"/><rect class="cls-3" x="263" y="451.6" width="14.6" height="77.5"/><path class="cls-3" d="M250.3,400.8a3,3,0,0,0-.8.4,30.66,30.66,0,0,1-4.5,2c-.6.3-1.2.6-1.9.9-.5.2-.9.4-1.4.6-1.8.9-3.5,1.9-5.4,2.9-.2.1-.3.2-.5.2v122h14.6l-.1-129Z"/><path class="cls-3" d="M216.2,418c1.6-.9,4.5-1.8,6.2-3.4V528.7H207.8v-107C210.9,421.3,213.5,419.4,216.2,418Z"/><path class="cls-3" d="M187.3,432.3a29.34,29.34,0,0,0,6-3.3V529H178.7V436.3C181.6,434.9,184.4,433.5,187.3,432.3Z"/><path class="cls-3" d="M296.8,446c37.4-1.6,39.1-49,39.1-49l3.5,1.7c1.2,3.4,3.7,12.9,5.3,36.8,2.2,33-32.5,34.7-32.5,34.7S294,462.5,296.8,446Z"/><path class="cls-5" d="M296,424.1c-73.3-27-66.8-112.8-66.8-112.8l3.4-7.3-5.2-7.8S226.4,199,295,199s71.2,96.7,71.2,96.7l-5.7,8.8,1.9,6.8s6.5,85.8-66.8,112.8"/><path class="cls-5" d="M290.8,241.5s-41.6-7.3-61.9,34.3"/><path class="cls-5" d="M227.3,281.1s-31.2,18.7.5,38"/><path class="cls-5" d="M365,280.2s30.1,20.4-2.7,37.9"/><line class="cls-5" x1="295.5" y1="310.3" x2="295.5" y2="330.6"/><path class="cls-5" d="M331,305.1a6.8,6.8,0,1,1-6.8-6.8A6.81,6.81,0,0,1,331,305.1Z"/><path class="cls-5" d="M274.4,305.1a6.8,6.8,0,1,1-6.8-6.8A6.81,6.81,0,0,1,274.4,305.1Z"/><path class="cls-5" d="M311.1,304.9s12.5-14.4,27.7.4"/><path class="cls-5" d="M254.7,304.9s12.5-14.4,27.7.4"/><path class="cls-5" d="M279.9,295.1s-19.1,1.6-30-4.3"/><path class="cls-5" d="M281,331s14.4,26.1,28.9,0"/><path class="cls-5" d="M288.4,191.4l-.3,7s-16.6,93.1,75.4,75.9C363.6,274.3,379.2,182.3,288.4,191.4Z"/><path class="cls-5" d="M361,271.3c-26.5-67.9-72.9-59.7-72.9-59.7"/><path class="cls-5" d="M361.8,274.1s-51.1-45.2-71.8-42.5"/><path class="cls-5" d="M300.5,260s47.6,12.5,55.8,12.9"/><path class="cls-5" d="M229.6,267s27.3-64.7,56.6-59.3"/><path class="cls-5" d="M230.3,269.8s23.8-48.4,55-47.6"/><path class="cls-5" d="M303.6,358s-6.8,5.2-13.3-.8"/><path class="cls-5" d="M178,438.8v.3l76.7-37.8a6.32,6.32,0,0,1,.7-1.6Z"/><path class="cls-6" d="M170.9,391.8l43.4-5.2c7.8.5,4.9-7,4.9-7l-10.4-79s1.6-7.8-7.5-6.2-45.2,5.7-45.2,5.7-7.3-.8-5.7,7.5,5.7,45.2,5.7,45.2l3.6,29.6"/><path class="cls-5" d="M112.6,527l50.4.5,7.1-54.3c12.4-19.5,2-27.8,2-27.8,12.2-14.3-2.6-20-2.6-20,2.1-5.2-9.4-12.2-9.4-12.2-4.9-11.7-11.8-9.4-11.8-9.4a156.35,156.35,0,0,1,15.9-9.6c8.5-4.4-1-8.3-1-8.3l-9.9,1.6-17.3,7,.1.8-12.9,17.2c-10.9,17.7-1.7,21.6-1.7,21.6L131.8,465s.8,12,.9,16.6-19.4,44.7-19.4,44.7"/><line class="cls-5" x1="129.2" y1="421.5" x2="147.5" y2="404.6"/><line class="cls-5" x1="160.1" y1="413.2" x2="141.7" y2="425.9"/><path class="cls-5" d="M168.5,425.6s-10.4,8.3-14.6,9.4"/><path class="cls-5" d="M171.3,444.4a15.1,15.1,0,0,1-9.6,1.6"/><path class="cls-5" d="M171.9,393.8s3.9,5.9-11.7,16"/><path class="cls-5" d="M308.5,290.9s24-11.6,36.5-4.5"/><line class="cls-5" x1="443.7" y1="450.1" x2="337.9" y2="397.8"/><path class="cls-7" d="M301,349.9s12.7-12.3,27.7-1.4c0,0,8.6,6.8,15,3.4s-7.7,10.7-22.9,6.4C320.8,358.3,313.5,359.2,301,349.9Z"/><path class="cls-7" d="M292.1,350.1s-12.7-12.2-27.7-1.4c0,0-8.6,6.8-15,3.4s7.7,10.7,22.9,6.4C272.4,358.5,279.7,359.5,292.1,350.1Z"/><circle class="cls-7" cx="267.6" cy="305.1" r="1.6"/><circle class="cls-7" cx="324.1" cy="305.1" r="1.6"/><path class="cls-4" d="M2.5,289.6C2.5,131,131,2.5,289.6,2.5S576.7,131,576.7,289.6V630s-1.9,29.6-29.4,39.9L314.5,712.4c-29.3,4.6-48,.4-48,.4l-1.6-.6L32,669.7C4.5,659.5,2.6,629.8,2.6,629.8V287.6"/></g></g></svg>