<svg xmlns="http://www.w3.org/2000/svg" viewBox="0 0 39 66"><defs><style>.cls-1{fill:none;stroke:#fff;stroke-miterlimit:10;}</style></defs><title>mouse_2</title><g id="Calque_2" data-name="Calque 2"><g id="Calque_1-2" data-name="Calque 1"><path class="cls-1" d="M6.34,6.42h0a16.8,16.8,0,0,1,24.94-.73l.62.62a23.43,23.43,0,0,1,6.6,16.52v21a23.58,23.58,0,0,1-5.84,15.72h0a16.8,16.8,0,0,1-24.94.73l-.62-.62A23.43,23.43,0,0,1,.5,43.17v-21A23.58,23.58,0,0,1,6.34,6.42Z"/><path class="cls-1" d="M16.79,15.09h0A3.73,3.73,0,0,1,21.92,15l.13.11a4.09,4.09,0,0,1,1.36,3.05V22a4.12,4.12,0,0,1-1.2,2.91h0a3.73,3.73,0,0,1-5.13.13L17,24.93a4.09,4.09,0,0,1-1.36-3.05V18A4.12,4.12,0,0,1,16.79,15.09Z"/></g></g></svg>