<svg xmlns="http://www.w3.org/2000/svg" viewBox="0 0 1008.91 884.47"><defs><style>.cls-1{fill:#e6e6e6;}.cls-2,.cls-23{fill:#666;}.cls-10,.cls-11,.cls-13,.cls-2,.cls-7,.cls-8{stroke:#000;stroke-miterlimit:10;}.cls-3{fill:#4d4d4d;}.cls-4,.cls-7{fill:#333;}.cls-5{fill:#999;}.cls-6{fill:gray;}.cls-8{fill:#b3b3b3;}.cls-10,.cls-11,.cls-8{stroke-width:0.25px;}.cls-9{fill:aqua;}.cls-10,.cls-15,.cls-16{fill:#ccc;}.cls-12{fill:red;}.cls-13{stroke-width:5px;}.cls-14{fill:#5f0030;}.cls-15{opacity:0.29;}.cls-16{opacity:0.22;}.cls-17{fill:#dbb59b;}.cls-18{fill:#1b1464;}.cls-19{fill:#8c6239;}.cls-20{fill:#320d00;}.cls-21{fill:#c9a075;}.cls-22{fill:#603813;}</style></defs><title>right_skills</title><g id="Calque_2" data-name="Calque 2"><g id="Calque_6" data-name="Calque 6"><path class="cls-1" d="M164.58,871.23c-82.36,43.53-179-26.6-162.79-118.35C49.5,481.86,192.86,48,622.5,3.49c470.12-48.67,405.63,423.67,342.83,666A148,148,0,0,1,788.89,776.61L613.55,736.38a373.05,373.05,0,0,0-257.74,33.79Z"/></g><g id="Calque_4" data-name="Calque 4"><polygon class="cls-2" points="185.85 542.37 194.25 535.05 227.17 535.05 234.28 542.37 185.85 542.37"/><rect class="cls-3" x="911.55" y="478.86" width="17.29" height="222.09"/><path d="M928.34,479.36V700.45H912.05V479.36h16.29m1-1H911.05V701.45h18.29V478.36Z"/><rect class="cls-4" x="911.55" y="482.52" width="17.29" height="42.89"/><path d="M928.34,483v41.89H912.05V483h16.29m1-1H911.05v43.89h18.29V482Z"/><rect class="cls-5" x="909.6" y="469.6" width="21.19" height="15.71" rx="2.92"/><path d="M927.87,470a2.55,2.55,0,0,1,2.55,2.55v9.86a2.55,2.55,0,0,1-2.55,2.55H912.52a2.55,2.55,0,0,1-2.54-2.55v-9.86a2.55,2.55,0,0,1,2.54-2.55h15.35m0-.75H912.52a3.29,3.29,0,0,0-3.29,3.3v9.86a3.29,3.29,0,0,0,3.29,3.3h15.35a3.3,3.3,0,0,0,3.3-3.3v-9.86a3.3,3.3,0,0,0-3.3-3.3Z"/><rect class="cls-3" x="127.1" y="478.86" width="17.29" height="222.09"/><path d="M143.88,479.36V700.45H127.6V479.36h16.28m1-1H126.6V701.45h18.28V478.36Z"/><rect class="cls-4" x="127.1" y="486.18" width="17.29" height="42.89"/><path d="M143.88,486.68v41.88H127.6V486.68h16.28m1-1H126.6v43.88h18.28V485.68Z"/><rect class="cls-5" x="125.14" y="469.6" width="21.19" height="15.71" rx="2.92"/><path d="M143.42,470a2.55,2.55,0,0,1,2.54,2.55v9.86a2.55,2.55,0,0,1-2.54,2.55H128.06a2.55,2.55,0,0,1-2.54-2.55v-9.86a2.55,2.55,0,0,1,2.54-2.55h15.36m0-.75H128.06a3.29,3.29,0,0,0-3.29,3.3v9.86a3.29,3.29,0,0,0,3.29,3.3h15.36a3.29,3.29,0,0,0,3.29-3.3v-9.86a3.29,3.29,0,0,0-3.29-3.3Z"/><rect x="521.57" y="346.71" width="14.63" height="131.66"/><rect x="112.47" y="464.24" width="831" height="13.63"/><path d="M943,464.74v12.62H113V464.74H943m1-1H112v14.62H944V463.74Z"/><rect x="397.23" y="352.19" width="131.66" height="14.63"/><rect x="528.88" y="352.19" width="131.66" height="14.63"/><rect class="cls-6" x="521.57" y="346.71" width="14.63" height="5.49"/><rect class="cls-7" x="177.8" y="542.36" width="65.83" height="155.43"/><path class="cls-8" d="M192.43,613.68V596.52c0-2.14,8.59-3.87,19.2-3.87h0c10.6,0,19.2,1.73,19.2,3.87v17.16C231.74,613.49,193.34,613.49,192.43,613.68Z"/><circle class="cls-9" cx="196.08" cy="558.82" r="3.66"/><rect x="192.43" y="613.68" width="38.4" height="5.49"/><rect class="cls-10" x="192.43" y="619.16" width="38.4" height="76.8"/><rect class="cls-11" x="214.37" y="657.56" width="12.8" height="23.77"/><rect class="cls-12" x="223.51" y="615.51" width="5.49" height="1.83"/><rect class="cls-13" x="303.05" y="292.76" width="208.46" height="137.14"/><rect class="cls-13" x="546.25" y="292.76" width="208.46" height="137.14"/><rect class="cls-4" x="373.45" y="319.28" width="104.23" height="7.31"/><rect class="cls-4" x="382.6" y="330.25" width="104.23" height="7.31"/><rect class="cls-4" x="393.57" y="343.05" width="104.23" height="7.31"/><rect class="cls-4" x="380.77" y="355.85" width="104.23" height="7.31"/><rect class="cls-4" x="367.97" y="368.65" width="104.23" height="7.31"/><rect class="cls-4" x="360.65" y="308.31" width="104.23" height="7.31"/><rect class="cls-14" x="336.88" y="319.28" width="23.77" height="7.31"/><rect class="cls-14" x="349.68" y="330.25" width="23.77" height="7.31"/><rect class="cls-14" x="360.65" y="343.05" width="23.77" height="7.31"/><rect class="cls-14" x="347.85" y="355.85" width="23.77" height="7.31"/><rect class="cls-14" x="335.05" y="368.65" width="23.77" height="7.31"/><rect class="cls-14" x="325" y="307.39" width="23.77" height="7.31"/><rect class="cls-4" x="613" y="321.11" width="104.23" height="7.31"/><rect class="cls-4" x="622.14" y="332.08" width="104.23" height="7.31"/><rect class="cls-4" x="633.11" y="344.88" width="104.23" height="7.31"/><rect class="cls-4" x="620.31" y="357.68" width="104.23" height="7.31"/><rect class="cls-4" x="607.51" y="370.48" width="104.23" height="7.31"/><rect class="cls-4" x="600.2" y="310.14" width="104.23" height="7.31"/><rect class="cls-14" x="576.43" y="321.11" width="23.77" height="7.31"/><rect class="cls-14" x="589.23" y="332.08" width="23.77" height="7.31"/><rect class="cls-14" x="600.2" y="344.88" width="23.77" height="7.31"/><rect class="cls-14" x="587.4" y="357.68" width="23.77" height="7.31"/><rect class="cls-14" x="574.6" y="370.48" width="23.77" height="7.31"/><rect class="cls-14" x="564.54" y="309.22" width="23.77" height="7.31"/><polygon class="cls-15" points="307.63 297.34 506.94 297.34 307.63 425.34 307.63 297.34"/><polygon class="cls-16" points="506.94 425.34 355.17 425.34 506.94 328.42 506.94 425.34"/><polygon class="cls-15" points="550.83 297.34 750.14 297.34 550.83 425.34 550.83 297.34"/><polygon class="cls-16" points="750.14 425.34 598.37 425.34 750.14 328.42 750.14 425.34"/><rect class="cls-17" x="519.74" y="399.74" width="21.94" height="20.11"/><path class="cls-18" d="M518,419.85H498.59a33,33,0,0,0-11.4,2l-5.08,1.89a11.38,11.38,0,0,0-6.2,5.23l-29.74,56.25a11.76,11.76,0,0,0-1,8.49l1,3.79a19.39,19.39,0,0,0,10.7,12.39l8.34,1.37,65.56,3.66V419.85Z"/><path class="cls-18" d="M543.4,419.85h19.44a33,33,0,0,1,11.4,2l5.07,1.89a11.34,11.34,0,0,1,6.2,5.23l29.74,56.25a11.76,11.76,0,0,1,1,8.49l-1,3.79a19.37,19.37,0,0,1-10.69,12.39l-8.35,1.37-65.56,3.66V419.85Z"/><path class="cls-19" d="M530.71,538.71H472.2s-32.92,5.48-25.6,38.4,23.77,104.23,23.77,104.23h31.57L486.83,573.45h43.88Z"/><path class="cls-19" d="M530.71,538.71h58.52s32.91,5.48,25.6,38.4-23.78,104.23-23.78,104.23H559.48L574.6,573.45H530.71Z"/><path class="cls-20" d="M503.28,703.28H446.6s0-21.94,23.77-21.94h31.08Z"/><path class="cls-20" d="M558.14,703.28h56.69s0-21.94-23.78-21.94H560Z"/><path class="cls-21" d="M486.83,386.94s-9.15-36.58,3.65-45.72,12.8-12.8,12.8-12.8,43.89-31.08,58.52-12.8,14.63,31.09,14.63,31.09,12.8,21.94,9.14,29.25-14.63,18.29-14.63,18.29Z"/><path class="cls-22" d="M517.91,558.82l-37,1.84s-17.47,5.21-12.65,32.93,15.56,87.76,15.56,87.76l16.9-.54-11-91,23.49-.75Z"/><path class="cls-22" d="M543.51,558.82l36.64,1s18,5.26,13.05,33.18-16,88.4-16,88.4l-17.4-.56,11.29-91.67-27.81-1.1Z"/><ellipse class="cls-3" cx="530.71" cy="586.25" rx="67.66" ry="16.46"/><ellipse class="cls-6" cx="530.71" cy="577.11" rx="49.37" ry="5.49"/><path d="M520.53,598.13h0c-36.74.08-66.56-31.7-66.56-70.92v-8.62H433.8v5c0,50.75,38.53,91.9,86.07,91.9h.66Z"/><path d="M540.89,598.13h0c36.74.08,66.56-31.7,66.56-70.92v-8.62h20.18v5c0,50.75-38.54,91.9-86.07,91.9h-.67Z"/><rect class="cls-3" x="474.03" y="350.36" width="111.54" height="54.86" rx="15"/><rect class="cls-3" x="470.37" y="425.34" width="118.86" height="124.34" rx="8.52"/><rect class="cls-23" x="481.34" y="351.47" width="95.09" height="44.61" rx="12.2"/><rect class="cls-6" x="474.03" y="425.34" width="111.54" height="118.86" rx="8.52"/><rect x="519.74" y="500.31" width="21.17" height="197.49" rx="5.79"/><rect x="472.2" y="681.34" width="117.03" height="7.31"/><circle cx="471.28" cy="693.22" r="11.89"/><circle cx="588.31" cy="693.22" r="11.89"/><rect x="525.23" y="350.36" width="10.97" height="199.31" rx="3"/><ellipse cx="444.77" cy="515.85" rx="16.46" ry="4.57"/><ellipse cx="616.65" cy="515.85" rx="16.46" ry="4.57"/></g></g></svg>